/* XPM */
static char * constrConcentric_xpm[] = {
"32 32 3 1",
" 	c None",
".	c #000000",
"+	c #229FFF",
"                                ",
"                                ",
"                                ",
"                                ",
"            ........            ",
"          ...      ...          ",
"        ...          ...        ",
"       ..              ..       ",
"      ..                ..      ",
"      .      ......      .      ",
"     ..    ..      ..    ..     ",
"     .    ..        ..    .     ",
"    ..    .          .    ..    ",
"    .    .            .    .    ",
"    .    .     ..     .    .    ",
"    .    .    .++.    .    .    ",
"    .    .    .++.    .    .    ",
"    .    .     ..     .    .    ",
"    .    .            .    .    ",
"    ..    .          .    ..    ",
"     .    ..        ..    .     ",
"     ..    ..      ..    ..     ",
"      .      ......      .      ",
"      ..                ..      ",
"       ..              ..       ",
"        ...          ...        ",
"          ...      ...          ",
"            ........            ",
"                                ",
"                                ",
"                                ",
"                                "};
