/* XPM */
static const char * constrSymmetric_selected_xpm[] = {
"32 32 4 1",
" 	c None",
".	c #B2B2B2",
"+	c #AADAFF",
"@	c #000000",
"................................",
"................................",
"...++++++++++++++++++++++++++...",
"..+..........................+..",
"..+............@@............+..",
"..+............@@............+..",
"..+..@@........@@........@@..+..",
"..+.@++@@@@@@@@@@@@@@@@@@++@.+..",
"..+.@++@.......@@.......@++@.+..",
"..+..@@........@@........@@..+..",
"..+...@........@@........@...+..",
"..+...@........@@........@...+..",
"..+....@.......@@.......@....+..",
"..+....@.......@@.......@....+..",
"..+....@.......@@.......@....+..",
"..+.....@......@@......@.....+..",
"..+.....@......@@......@.....+..",
"..+.....@......@@......@.....+..",
"..+......@.....@@.....@......+..",
"..+......@.....@@.....@......+..",
"..+......@@....@@....@@......+..",
"..+.....@++@...@@...@++@.....+..",
"..+.....@++@@@@@@@@@@++@.....+..",
"..+......@@....@@....@@......+..",
"..+............@@............+..",
"..+............@@............+..",
"..+............@@............+..",
"..+..........................+..",
"..+..........................+..",
"...++++++++++++++++++++++++++...",
"................................",
"................................"};
