/* XPM */
static const char * constrCollinear_selected_xpm[] = {
"32 32 4 1",
" 	c None",
".	c #AADAFF",
"+	c #B2B2B2",
"@	c #000000",
"                                ",
"                                ",
"   ..........................   ",
"  .+++++++++++++++++++++++@@ .  ",
"  .++++++++++++++++++++++@..@.  ",
"  .++++++++++++++++++++++@..@.  ",
"  .+++++++++++++++++++++@@@@+.  ",
"  .++++++++++++++++++++@@@+++.  ",
"  .+++++++++++++++++++@@@++++.  ",
"  .++++++++++++++++++@@@+++++.  ",
"  .+++++++++++++++++@@@++++++.  ",
"  .+++++++++++++++@@@@+++++++.  ",
"  .++++++++++++++@..@++++++++.  ",
"  .++++++++++++++@..@++++++++.  ",
"  .+++++++++++++++@@+++++++++.  ",
"  .+++++++++++++@++++++++++++.  ",
"  .++++++++++++@+++++++++++++.  ",
"  .+++++++++@@+++++++++++++++.  ",
"  .++++++++@..@++++++++++++++.  ",
"  .++++++++@..@++++++++++++++.  ",
"  .+++++++@@@@+++++++++++++++.  ",
"  .++++++@@@+++++++++++++++++.  ",
"  .+++++@@@++++++++++++++++++.  ",
"  .++++@@@+++++++++++++++++++.  ",
"  .+++@@@++++++++++++++++++++.  ",
"  .+@@@@+++++++++++++++++++++.  ",
"  .@..@++++++++++++++++++++++.  ",
"  .@..@++++++++++++++++++++++.  ",
"  . @@+++++++++++++++++++++++.  ",
"   ..........................   ",
"                                ",
"                                "};
