/* XPM */
static const char * constrHorizontal_xpm[] = {
"32 32 3 1",
" 	c None",
".	c #000000",
"+	c #229FFF",
"                                ",
"                                ",
"                                ",
"                                ",
"                                ",
"                                ",
"                                ",
"                                ",
"                                ",
"                                ",
"                                ",
"                                ",
"                                ",
"                                ",
"    ..                    ..    ",
"   .++....................++.   ",
"   .++....................++.   ",
"    ..                    ..    ",
"                                ",
"                                ",
"                                ",
"                                ",
"                                ",
"                                ",
"                                ",
"                                ",
"                                ",
"                                ",
"                                ",
"                                ",
"                                ",
"                                "};
