/* XPM */
static const char * constrAngle_selected_xpm[] = {
"32 32 4 1",
" 	c None",
".	c #AADAFF",
"+	c #B2B2B2",
"@	c #000000",
"                                ",
"                                ",
"   ..........................   ",
"  .++++++++++++++++++++++++++.  ",
"  .++++++++++++++++++++++++++.  ",
"  .++++++++++++++++++++++++++.  ",
"  .++++++++++++++++++++++++++.  ",
"  .++++++++++++++++++++++++++.  ",
"  .++++++++++++++++++++++++++.  ",
"  .+++++++++++++++++++@@+++++.  ",
"  .++++++++++++++++++@..@++++.  ",
"  .++++++++++++++++++@..@++++.  ",
"  .+++++++++++++++++@@@++++++.  ",
"  .++++++++++++++++@@@+++++++.  ",
"  .+++++++++++++++@@@++++++++.  ",
"  .++++++++++++++@@@+++++++++.  ",
"  .+++++++++++++@@@..++++++++.  ",
"  .++++++++++++@@@+...+++++++.  ",
"  .+++++++++++@@@+++...++++++.  ",
"  .++++++++++@@@+++++..++++++.  ",
"  .+++++++++@@@+++++++..+++++.  ",
"  .+@@+++++@@@++++++++..++@@+.  ",
"  .@..@@@@@@@@@@@@@@@@@@@@..@.  ",
"  .@..@@@@@@@@@@@@@@@@@@@@..@.  ",
"  .+@@++@@@+++++++++++++++@@+.  ",
"  .++++@@@+++++++++++++++++++.  ",
"  .+++@..@+++++++++++++++++++.  ",
"  .+++@..@+++++++++++++++++++.  ",
"  .++++@@++++++++++++++++++++.  ",
"   ..........................   ",
"                                ",
"                                "};
