/* XPM */
static const char * drawLine_selected_xpm[] = {
"32 32 4 1",
" 	c None",
".	c #000000",
"+	c #aadaff",
"@	c #B2B2B2",
"                                ",
"                                ",
"   ++++++++++++++++++++++++++   ",
"  +@@@@@@@@@@@@@@@@@@@@@@@@@@+  ",
"  +@@@@@@@@@@@@@@@@@@@@@@@@@@+  ",
"  +@@@@@@@@@@@@@@@@@@@@@@@@@@+  ",
"  +@@@@@@@@@@@@@@@@@@@@..@@@@+  ",
"  +@@@@@@@@@@@@@@@@@@@.++.@@@+  ",
"  +@@@@@@@@@@@@@@@@@@@.++.@@@+  ",
"  +@@@@@@@@@@@@@@@@@@@...@@@@+  ",
"  +@@@@@@@@@@@@@@@@@@.@@@@@@@+  ",
"  +@@@@@@@@@@@@@@@@@.@@@@@@@@+  ",
"  +@@@@@@@@@@@@@@@@.@@@@@@@@@+  ",
"  +@@@@@@@@@@@@@@@.@@@@@@@@@@+  ",
"  +@@@@@@@@@@@@@@.@@@@@@@@@@@+  ",
"  +@@@@@@@@@@@@@.@@@@@@@@@@@@+  ",
"  +@@@@@@@@@@@@.@@@@@@@@@@@@@+  ",
"  +@@@@@@@@@@@.@@@@@@@@@@@@@@+  ",
"  +@@@@@@@@@@.@@@@@@@@@@@@@@@+  ",
"  +@@@@@@@@@.@@@@@@@@@@@@@@@@+  ",
"  +@@@@@@@@.@@@@@@@@@@@@@@@@@+  ",
"  +@@@@@@@.@@@@@@@@@@@@@@@@@@+  ",
"  +@@@@@@.@@@@@@@@@@@@@@@@@@@+  ",
"  +@@@...@@@@@@@@@@@@@@@@@@@@+  ",
"  +@@.++.@@@@@@@@@@@@@@@@@@@@+  ",
"  +@@.++.@@@@@@@@@@@@@@@@@@@@+  ",
"  +@@@..@@@@@@@@@@@@@@@@@@@@@+  ",
"  +@@@@@@@@@@@@@@@@@@@@@@@@@@+  ",
"  +@@@@@@@@@@@@@@@@@@@@@@@@@@+  ",
"   ++++++++++++++++++++++++++   ",
"                                ",
"                                "};
