/* XPM */
static const char * drawLine_xpm[] = {
"32 32 3 1",
" 	c None",
".	c #000000",
"+	c #229FFF",
"                                ",
"                                ",
"                                ",
"                                ",
"                                ",
"                                ",
"                       ..       ",
"                      .++.      ",
"                      .++.      ",
"                      ...       ",
"                     .          ",
"                    .           ",
"                   .            ",
"                  .             ",
"                 .              ",
"                .               ",
"               .                ",
"              .                 ",
"             .                  ",
"            .                   ",
"           .                    ",
"          .                     ",
"         .                      ",
"      ...                       ",
"     .++.                       ",
"     .++.                       ",
"      ..                        ",
"                                ",
"                                ",
"                                ",
"                                ",
"                                "};
